<svg xmlns="http://www.w3.org/2000/svg" xmlns:xlink="http://www.w3.org/1999/xlink" aria-hidden="true" role="img" width="1em" height="1em" preserveAspectRatio="xMidYMid meet" viewBox="0 0 24 24"><g fill="none"><path d="M15 4.5c-.388-.1-1.332-.5-3-.5s-2.612.4-3 .5C8.475 4.075 7.062 3 5.5 3c-.344 1-.286 2.22 0 3c-.75 1-1 2-1 3.5c0 2.188.483 3.582 1.5 4.5c1.017.918 2.111 1.375 3.5 1.5c-.65.538-.5 1.874-.5 2.5v4h6v-4c0-.626.15-1.962-.5-2.5c1.389-.125 2.483-.582 3.5-1.5s1.5-2.313 1.5-4.5c0-1.5-.25-2.5-1-3.5c.286-.78.344-2 0-3c-1.563 0-2.975 1.075-3.5 1.5z" fill="#6c6c6c" fill-opacity=".3" class="il-md-fill il-md-duration-0 il-md-delay-5"/><path d="M12 4c1.668 0 2.612.4 3 .5c.525-.425 1.938-1.5 3.5-1.5c.344 1 .286 2.22 0 3c.75 1 1 2 1 3.5c0 2.188-.483 3.582-1.5 4.5c-1.017.918-2.111 1.375-3.5 1.5c.65.538.5 1.874.5 2.5v3" stroke="#6c6c6c" stroke-width="2" stroke-linecap="round" stroke-linejoin="round" class="il-md-length-40 il-md-duration-3 il-md-delay-0"/><path d="M12 4c-1.668 0-2.612.4-3 .5C8.475 4.075 7.062 3 5.5 3c-.344 1-.286 2.22 0 3c-.75 1-1 2-1 3.5c0 2.188.483 3.582 1.5 4.5c1.017.918 2.111 1.375 3.5 1.5c-.65.538-.5 1.874-.5 2.5v3" stroke="#6c6c6c" stroke-width="2" stroke-linecap="round" stroke-linejoin="round" class="il-md-length-40 il-md-duration-3 il-md-delay-0"/><path d="M9 19c-1.406 0-2.844-.563-3.688-1.188C4.47 17.188 4.22 16.157 3 15.5" stroke="#6c6c6c" stroke-width="2" stroke-linecap="round" class="il-md-length-15 il-md-duration-2 il-md-delay-3"/></g></svg>